<?xml version="1.0" encoding="iso-8859-1"?>
<!-- Uploaded to: SVG Repo, www.svgrepo.com, Generator: SVG Repo Mixer Tools -->
<svg fill="#000000" height="800px" width="800px" version="1.1" id="Layer_1" xmlns="http://www.w3.org/2000/svg" xmlns:xlink="http://www.w3.org/1999/xlink" 
	 viewBox="0 0 512 512" xml:space="preserve">
<g>
	<g>
		<path d="M437.019,74.981C388.668,26.628,324.38,0,256,0C187.62,0,123.333,26.629,74.981,74.981C26.628,123.332,0,187.62,0,256
			s26.629,132.667,74.981,181.019C123.332,485.372,187.62,512,256,512s132.667-26.629,181.019-74.981
			C485.372,388.668,512,324.38,512,256C512,187.62,485.371,123.333,437.019,74.981z M256,491.102
			C126.365,491.102,20.898,385.635,20.898,256S126.365,20.898,256,20.898S491.102,126.365,491.102,256S385.635,491.102,256,491.102z
			"/>
	</g>
</g>
<g>
	<g>
		<path d="M339.19,55.612c-26.39-10.967-54.379-16.528-83.188-16.528c-5.771,0-10.449,4.678-10.449,10.449
			c0,5.771,4.678,10.449,10.449,10.449c26.043,0,51.334,5.023,75.169,14.928c1.31,0.544,2.669,0.802,4.005,0.802
			c4.095,0,7.983-2.424,9.654-6.442C347.044,63.942,344.519,57.827,339.19,55.612z"/>
	</g>
</g>
<g>
	<g>
		<path d="M443.92,147.583c-18.399-31.824-44.779-58.661-76.292-77.609c-4.943-2.974-11.364-1.375-14.339,3.57
			c-2.974,4.945-1.375,11.365,3.57,14.339c59.586,35.83,95.16,98.676,95.16,168.116c0,5.771,4.678,10.449,10.449,10.449
			c5.771,0,10.449-4.678,10.449-10.449C472.917,217.887,462.89,180.397,443.92,147.583z"/>
	</g>
</g>
<g>
	<g>
		<path d="M256,178.678c-42.636,0-77.322,34.686-77.322,77.322s34.686,77.322,77.322,77.322s77.322-34.686,77.322-77.322
			C333.322,213.364,298.636,178.678,256,178.678z M256,312.424c-31.112,0-56.424-25.312-56.424-56.425
			c0-31.113,25.312-56.424,56.424-56.424c31.112,0,56.425,25.312,56.425,56.424C312.424,287.113,287.112,312.424,256,312.424z"/>
	</g>
</g>
<g>
	<g>
		<path d="M256,219.429c-20.165,0-36.571,16.406-36.571,36.571c0,20.166,16.406,36.571,36.571,36.571
			c20.166,0,36.571-16.406,36.571-36.571C292.571,235.835,276.166,219.429,256,219.429z M256,271.673
			c-8.642,0-15.673-7.031-15.673-15.673c0-8.642,7.031-15.673,15.673-15.673c8.642,0,15.673,7.031,15.673,15.673
			C271.673,264.642,264.642,271.673,256,271.673z"/>
	</g>
</g>
</svg>